<svg fill="#000000" height="48" viewBox="0 0 48 48" width="48" xmlns="http://www.w3.org/2000/svg">
  <svg id="my-location" fill="#FFFFFF">
    <path d="M0 0h24v24H0z" fill="none"/>
    <path
      d="M12 8c-2.21 0-4 1.79-4 4s1.79 4 4 4 4-1.79 4-4-1.79-4-4-4zm8.94 3c-.46-4.17-3.77-7.48-7.94-7.94V1h-2v2.06C6.83 3.52 3.52 6.83 3.06 11H1v2h2.06c.46 4.17 3.77 7.48 7.94 7.94V23h2v-2.06c4.17-.46 7.48-3.77 7.94-7.94H23v-2h-2.06zM12 19c-3.87 0-7-3.13-7-7s3.13-7 7-7 7 3.13 7 7-3.13 7-7 7z"/>
  </svg>
  <svg id="adjust" fill="#2980B9" height="24" viewBox="0 0 24 24" width="24" xmlns="http://www.w3.org/2000/svg">
    <path d="M12 2C6.49 2 2 6.49 2 12s4.49 10 10 10 10-4.49 10-10S17.51 2 12 2zm0 18c-4.41 0-8-3.59-8-8s3.59-8 8-8 8 3.59 8 8-3.59 8-8 8zm3-8c0 1.66-1.34 3-3 3s-3-1.34-3-3 1.34-3 3-3 3 1.34 3 3z"/>
    <path d="M0 0h24v24H0z" fill="none"/>
  </svg>
  <svg id="menu" fill="#ffffff">
    <path d="M0 0h24v24H0z" fill="none"/>
    <path d="M3 18h18v-2H3v2zm0-5h18v-2H3v2zm0-7v2h18V6H3z"/>
  </svg>
  <svg id="radio" fill="#2980B9">
    <path d="M12 2C6.48 2 2 6.48 2 12s4.48 10 10 10 10-4.48 10-10S17.52 2 12 2zm0 18c-4.42 0-8-3.58-8-8s3.58-8 8-8 8 3.58 8 8-3.58 8-8 8z"/>
    <path d="M0 0h24v24H0z" fill="none"/>
  </svg>
  <svg id="mic" fill="#f44336">
    <path d="M12 14c1.66 0 2.99-1.34 2.99-3L15 5c0-1.66-1.34-3-3-3S9 3.34 9 5v6c0 1.66 1.34 3 3 3zm5.3-3c0 3-2.54 5.1-5.3 5.1S6.7 14 6.7 11H5c0 3.41 2.72 6.23 6 6.72V21h2v-3.28c3.28-.48 6-3.3 6-6.72h-1.7z"/>
    <path d="M0 0h24v24H0z" fill="none"/>
  </svg>
  <svg id="mic-off" fill="#FFFFFF">
    <path d="M0 0h24v24H0zm0 0h24v24H0z" fill="none"/>
    <path d="M19 11h-1.7c0 .74-.16 1.43-.43 2.05l1.23 1.23c.56-.98.9-2.09.9-3.28zm-4.02.17c0-.06.02-.11.02-.17V5c0-1.66-1.34-3-3-3S9 3.34 9 5v.18l5.98 5.99zM4.27 3L3 4.27l6.01 6.01V11c0 1.66 1.33 3 2.99 3 .22 0 .44-.03.65-.08l1.66 1.66c-.71.33-1.5.52-2.31.52-2.76 0-5.3-2.1-5.3-5.1H5c0 3.41 2.72 6.23 6 6.72V21h2v-3.28c.91-.13 1.77-.45 2.54-.9L19.73 21 21 19.73 4.27 3z"/>
  </svg>
  <svg id="radio-selected" fill="#2980B9">
    <path d="M12 7c-2.76 0-5 2.24-5 5s2.24 5 5 5 5-2.24 5-5-2.24-5-5-5zm0-5C6.48 2 2 6.48 2 12s4.48 10 10 10 10-4.48 10-10S17.52 2 12 2zm0 18c-4.42 0-8-3.58-8-8s3.58-8 8-8 8 3.58 8 8-3.58 8-8 8z"/>
    <path d="M0 0h24v24H0z" fill="none"/>
  </svg>
  <svg id="refresh" fill="#000000">
    <path d="M17.65 6.35C16.2 4.9 14.21 4 12 4c-4.42 0-7.99 3.58-7.99 8s3.57 8 7.99 8c3.73 0 6.84-2.55 7.73-6h-2.08c-.82 2.33-3.04 4-5.65 4-3.31 0-6-2.69-6-6s2.69-6 6-6c1.66 0 3.14.69 4.22 1.78L13 11h7V4l-2.35 2.35z"/>
    <path d="M0 0h24v24H0z" fill="none"/>
  </svg>
  <svg id="rec" fill="#FFFFFF">
    <path d="M24 24H0V0h24v24z" fill="none"/>
    <circle cx="12" cy="12" r="8"/>
  </svg>
  <svg id="up" fill="#2980B9">
    <path d="M7.41 15.41L12 10.83l4.59 4.58L18 14l-6-6-6 6z"/>
    <path d="M0 0h24v24H0z" fill="none"/>
  </svg>
  <svg id="down" fill="#2980B9">
    <path d="M7.41 7.84L12 12.42l4.59-4.58L18 9.25l-6 6-6-6z"/>
    <path d="M0-.75h24v24H0z" fill="none"/>
  </svg>
  <svg id="plus" fill="#FFFFFF">
    <path d="M19 13h-6v6h-2v-6H5v-2h6V5h2v6h6v2z"/>
    <path d="M0 0h24v24H0z" fill="none"/>
  </svg>
  <svg id="camera" fill="#000000" fill-opacity="0.3">
    <circle cx="12" cy="12" r="3.2"/>
    <path d="M9 2L7.17 4H4c-1.1 0-2 .9-2 2v12c0 1.1.9 2 2 2h16c1.1 0 2-.9 2-2V6c0-1.1-.9-2-2-2h-3.17L15 2H9zm3 15c-2.76 0-5-2.24-5-5s2.24-5 5-5 5 2.24 5 5-2.24 5-5 5z"/>
    <path d="M0 0h24v24H0z" fill="none"/>
  </svg>
  <svg id="file-upload" fill="#000000">
    <path d="M0 0h24v24H0z" fill="none"/>
    <path d="M9 16h6v-6h4l-7-7-7 7h4zm-4 2h14v2H5z"/>
  </svg>
  <svg id="file-download" fill="#000000">
    <path d="M19 9h-4V3H9v6H5l7 7 7-7zM5 18v2h14v-2H5z"/>
    <path d="M0 0h24v24H0z" fill="none"/>
  </svg>
  <svg id="back" fill="#FFFFFF" height="48" viewBox="0 0 24 24" width="48" xmlns="http://www.w3.org/2000/svg">
    <path d="M15.41 7.41L14 6l-6 6 6 6 1.41-1.41L10.83 12z"/>
    <path d="M0 0h24v24H0z" fill="none"/>
  </svg>
  <svg id="next" fill="#FFFFFF" height="48" viewBox="0 0 24 24" width="48" xmlns="http://www.w3.org/2000/svg">
    <path d="M10 6L8.59 7.41 13.17 12l-4.58 4.59L10 18l6-6z"/>
    <path d="M0 0h24v24H0z" fill="none"/>
  </svg>
  <svg id="save" fill="#FFFFFF" height="48" viewBox="0 0 24 24" width="48" xmlns="http://www.w3.org/2000/svg">
    <path d="M2.01 21L23 12 2.01 3 2 10l15 2-15 2z"/>
    <path d="M0 0h24v24H0z" fill="none"/>
  </svg>
  <svg id="settings" fill="#000000">
    <path d="M0 0h24v24H0z" fill="none"/>
    <path d="M19.43 12.98c.04-.32.07-.64.07-.98s-.03-.66-.07-.98l2.11-1.65c.19-.15.24-.42.12-.64l-2-3.46c-.12-.22-.39-.3-.61-.22l-2.49 1c-.52-.4-1.08-.73-1.69-.98l-.38-2.65C14.46 2.18 14.25 2 14 2h-4c-.25 0-.46.18-.49.42l-.38 2.65c-.61.25-1.17.59-1.69.98l-2.49-1c-.23-.09-.49 0-.61.22l-2 3.46c-.13.22-.07.49.12.64l2.11 1.65c-.04.32-.07.65-.07.98s.03.66.07.98l-2.11 1.65c-.19.15-.24.42-.12.64l2 3.46c.12.22.39.3.61.22l2.49-1c.52.4 1.08.73 1.69.98l.38 2.65c.03.24.24.42.49.42h4c.25 0 .46-.18.49-.42l.38-2.65c.61-.25 1.17-.59 1.69-.98l2.49 1c.23.09.49 0 .61-.22l2-3.46c.12-.22.07-.49-.12-.64l-2.11-1.65zM12 15.5c-1.93 0-3.5-1.57-3.5-3.5s1.57-3.5 3.5-3.5 3.5 1.57 3.5 3.5-1.57 3.5-3.5 3.5z"/>
  </svg>
  <svg id="info" fill="#2980B9">
    <path d="M0 0h24v24H0z" fill="none"/>
    <path d="M11 17h2v-6h-2v6zm1-15C6.48 2 2 6.48 2 12s4.48 10 10 10 10-4.48 10-10S17.52 2 12 2zm0 18c-4.41 0-8-3.59-8-8s3.59-8 8-8 8 3.59 8 8-3.59 8-8 8zM11 9h2V7h-2v2z"/>
  </svg>
  <svg id="infinity" fill="#2980B9">
    <path d="M18.6 6.62c-1.44 0-2.8.56-3.77 1.53L12 10.66 10.48 12h.01L7.8 14.39c-.64.64-1.49.99-2.4.99-1.87 0-3.39-1.51-3.39-3.38S3.53 8.62 5.4 8.62c.91 0 1.76.35 2.44 1.03l1.13 1 1.51-1.34L9.22 8.2C8.2 7.18 6.84 6.62 5.4 6.62 2.42 6.62 0 9.04 0 12s2.42 5.38 5.4 5.38c1.44 0 2.8-.56 3.77-1.53l2.83-2.5.01.01L13.52 12h-.01l2.69-2.39c.64-.64 1.49-.99 2.4-.99 1.87 0 3.39 1.51 3.39 3.38s-1.52 3.38-3.39 3.38c-.9 0-1.76-.35-2.44-1.03l-1.14-1.01-1.51 1.34 1.27 1.12c1.02 1.01 2.37 1.57 3.82 1.57 2.98 0 5.4-2.41 5.4-5.38s-2.42-5.37-5.4-5.37z"/>
    <path d="M0 0h24v24H0V0z" fill="none"/>
  </svg>
  <svg id="MVL-232" width="21.1667mm" height="21.1665mm"
       style="shape-rendering:geometricPrecision; text-rendering:geometricPrecision; image-rendering:optimizeQuality; fill-rule:evenodd; clip-rule:evenodd"
       viewBox="0 0 235 235">
    <defs>
      <style type="text/css">
        <![CDATA[
      .fil0 {fill:none}
      .fil1 {fill:#2980B9}
     ]]>
      </style>
    </defs>
    <g id="Layer_x0020_1">
      <metadata id="CorelCorpID_0Corel-Layer"/>
      <g id="_801985552">
        <polygon class="fil0" points="0,235 235,235 235,0 0,0 "/>
        <path class="fil1"
              d="M161 124c13,0 13,8 13,19 0,7 -3,13 -7,16 12,2 12,12 12,23 0,13 -8,24 -18,24 -10,0 -19,-11 -19,-24 0,-11 1,-21 12,-23 -3,-3 -6,-9 -6,-16 0,-11 0,-19 13,-19l0 0zm-100 -89c15,0 15,10 0,10 -16,0 -16,-10 0,-10l0 0zm-13 -3c1,2 2,4 4,2 2,-1 0,-2 -1,-4 -1,-4 -2,-7 -5,-12 -1,-2 -3,-3 -5,-2 -2,2 -2,4 -1,5 3,6 5,8 8,11l0 0zm25 0c3,-3 5,-5 8,-11 1,-1 1,-3 -1,-5 -2,-1 -4,0 -5,2 -3,5 -3,8 -5,12 -1,2 -3,3 -1,4 2,2 3,0 4,-2l0 0zm-43 101c-1,1 -1,3 0,4 1,1 3,1 3,0 8,-9 7,-11 4,-16 -1,-1 -2,-3 -2,-4 -1,-2 -2,-3 -2,-5 -2,-3 -3,-4 -1,-6 1,-1 0,-2 -1,-3 -1,-1 -2,-1 -3,0 -3,4 -2,6 0,12 1,1 1,2 2,4 1,2 2,3 3,5 2,2 2,3 -3,9l0 0zm61 0c1,1 1,3 0,4 -1,1 -2,1 -3,0 -8,-9 -7,-11 -4,-16 1,-1 2,-3 3,-4 0,-2 1,-3 2,-5 1,-3 2,-4 1,-6 -1,-1 -1,-2 0,-3 1,-1 2,-1 3,0 4,4 3,6 0,12 0,1 -1,2 -2,4 -1,2 -2,3 -3,5 -1,2 -2,3 3,9l0 0zm-81 -40c-1,1 -2,2 -1,3 0,2 2,2 3,2 4,-2 7,-3 8,-5 2,-2 3,-4 4,-9l0 -1c1,-4 1,-5 5,-6 1,-1 2,-2 2,-3 -1,-2 -2,-2 -3,-2 -7,2 -8,4 -9,10 0,0 0,0 0,1 -1,4 -1,6 -2,7 -1,1 -3,2 -7,3l0 0zm101 0c1,1 2,2 2,3 -1,2 -2,2 -4,2 -4,-2 -7,-3 -8,-5 -2,-2 -2,-4 -3,-9l-1 -1c0,-4 -1,-5 -5,-6 -1,-1 -2,-2 -1,-3 0,-2 1,-2 3,-2 7,2 7,4 8,10 0,0 0,0 0,1 1,4 2,6 3,7 0,1 2,2 6,3l0 0zm-77 -40c2,0 3,-1 3,-2 1,-1 0,-2 -1,-3 -4,-1 -4,-2 -3,-4 0,-1 0,-1 0,-2 1,-5 -1,-7 -3,-10l0 0 0 0c-1,0 -1,-1 -2,-1 -1,-1 -2,-1 -3,0 -1,1 -1,2 0,3 0,1 1,1 1,2l0 0c2,1 3,2 2,5 0,1 0,1 0,2 -1,4 -2,7 6,10l0 0zm53 0c-1,0 -3,-1 -3,-2 -1,-1 0,-2 1,-3 4,-1 4,-2 4,-4 -1,-1 -1,-1 -1,-2 -1,-5 1,-7 3,-10l0 0 0 0c1,0 2,-1 2,-1 1,-1 2,-1 3,0 1,1 2,2 1,3 -1,1 -2,1 -2,2l0 0c-2,1 -3,2 -2,5 0,1 0,1 0,2 1,4 2,7 -6,10l0 0zm-8 -7c-3,-4 -2,-3 -5,-1 -8,5 -19,5 -26,0 -4,-2 -3,-3 -6,1 -1,2 -2,5 -4,7 -2,5 -2,4 4,6 5,3 11,4 19,4 7,0 13,-1 18,-3 7,-3 6,-3 3,-8 -1,-3 -2,-4 -3,-6l0 0zm7 15c-6,4 -15,6 -23,6l0 70c24,-3 30,-54 23,-76l0 0zm-27 76c-25,-3 -31,-54 -24,-76 7,4 16,6 24,6l0 70zm88 -7c-3,-12 0,-20 2,-27 2,-7 4,-13 3,-22 0,-2 -2,-3 -4,-3 -1,0 -3,2 -3,4 1,7 -1,13 -3,19 -2,8 -5,16 -2,31 0,2 2,3 4,3 2,-1 3,-3 3,-5l0 0zm-3 7c-11,-6 -16,-12 -20,-19 -4,-5 -7,-11 -15,-16 -2,-1 -4,0 -5,1 -1,2 0,4 1,5 7,4 10,9 13,14 5,7 10,15 23,21 2,1 4,1 5,-1 1,-2 0,-4 -2,-5l0 0zm-42 51c11,-7 16,-14 20,-20 5,-7 9,-13 22,-16 2,0 3,-2 3,-4 -1,-2 -3,-3 -5,-3 -15,3 -20,11 -26,19 -4,6 -8,12 -18,18 -2,1 -2,3 -1,5 1,1 3,2 5,1l0 0zm39 29c1,-10 -1,-18 -3,-26 -3,-13 -6,-23 9,-31 2,-1 2,-3 1,-5 -1,-1 -3,-2 -4,-1 -20,11 -17,23 -13,39 2,7 4,15 3,24 0,2 2,3 4,3 2,1 3,-1 3,-3l0 0zm46 0c-1,-9 1,-17 3,-24 4,-16 7,-28 -12,-39 -2,-1 -4,0 -5,1 -1,2 0,4 1,5 15,8 13,18 9,31 -2,8 -4,16 -3,26 0,2 2,4 4,3 1,0 3,-1 3,-3l0 0zm36 -35c-10,-6 -14,-12 -18,-18 -6,-8 -11,-16 -26,-19 -2,0 -4,1 -4,3 -1,2 1,4 2,4 13,3 17,9 22,16 5,6 10,13 21,20 1,1 3,0 4,-1 1,-2 1,-4 -1,-5l0 0zm-43 -39c13,-6 18,-14 23,-21 3,-5 6,-10 13,-14 2,-1 2,-3 1,-5 -1,-1 -3,-2 -5,-1 -7,5 -11,11 -15,16 -4,7 -9,13 -20,19 -2,1 -3,3 -2,5 1,2 3,2 5,1l0 0zm1 -11c3,-15 0,-23 -2,-31 -2,-6 -4,-12 -3,-19 0,-2 -1,-4 -3,-4 -2,0 -4,1 -4,3 -1,9 1,15 3,22 3,7 5,15 2,27 0,2 1,4 3,5 2,0 4,-1 4,-3z"/>
      </g>
    </g>
  </svg>
  <svg id="MVL-27" width="21.1667mm" height="21.1664mm"
       style="shape-rendering:geometricPrecision; text-rendering:geometricPrecision; image-rendering:optimizeQuality; fill-rule:evenodd; clip-rule:evenodd"
       viewBox="0 0 546 546">
    <defs>
      <style type="text/css">
        <![CDATA[
      .fil0 {fill:none}
      .fil1 {fill:#2980B9}
     ]]>
      </style>
    </defs>
    <g id="Layer_x0020_1">
      <metadata id="CorelCorpID_0Corel-Layer"/>
      <g id="_801972240">
        <polygon class="fil0" points="0,546 546,546 546,0 0,0 "/>
        <path class="fil1"
              d="M164 431c1,8 -1,16 -6,19 -4,3 -9,0 -19,-14 -6,-8 -8,-19 -8,-27 -14,-11 -29,-28 -38,-44 -2,2 -14,20 -14,19 -11,-6 -51,-74 -45,-87 5,-10 14,-23 31,-34 5,-77 56,-120 95,-144 20,-12 49,-22 67,-24 43,-8 82,-12 86,-4 7,13 -24,8 -31,37 -2,7 5,1 24,-7 11,-5 15,-16 17,-14 12,15 -21,44 -46,66 -14,12 -34,34 -46,40 16,27 35,38 24,50 -7,8 -38,3 -54,-7 -26,50 33,142 151,111 12,-3 27,-8 33,-19 12,-20 12,-53 18,-77 5,-17 10,-12 20,2 11,15 26,32 64,31 29,0 43,0 13,30 -18,18 -51,23 -75,37 -14,8 -27,20 -40,28 -17,9 -31,21 -48,30 1,3 8,9 8,17 1,8 -14,14 -37,17 -14,1 -44,-3 -58,-10 -29,-1 -59,-9 -86,-22l0 0zm21 -307c-7,13 -10,26 -8,37 1,8 4,16 9,21 5,6 11,10 20,12 11,2 25,0 41,-8 3,-2 4,-5 3,-8 -2,-2 -5,-4 -8,-2 -14,7 -25,8 -34,7 -6,-1 -11,-4 -14,-8 -3,-4 -6,-9 -6,-15 -1,-9 1,-20 7,-30 2,-3 1,-6 -2,-8 -3,-2 -6,-1 -8,2l0 0zm76 -17c-7,0 -12,5 -12,12 0,6 5,11 12,11 6,0 12,-5 12,-11 0,-7 -6,-12 -12,-12z"/>
      </g>
    </g>
  </svg>
  <svg id="MVL-21" width="21.1667mm" height="21.1667mm"
       style="shape-rendering:geometricPrecision; text-rendering:geometricPrecision; image-rendering:optimizeQuality; fill-rule:evenodd; clip-rule:evenodd"
       viewBox="0 0 425 425">
    <defs>
      <style type="text/css">
        <![CDATA[
      .fil0 {fill:none}
      .fil1 {fill:#2980B9}
     ]]>
      </style>
    </defs>
    <g id="Layer_x0020_1">
      <metadata id="CorelCorpID_0Corel-Layer"/>
      <g id="_801964144">
        <polygon class="fil0" points="0,425 425,425 425,0 0,0 "/>
        <path class="fil1"
              d="M187 89c1,-11 5,-33 16,-49 10,-14 8,-21 10,-23 0,0 2,0 2,0 3,2 0,9 10,23 11,16 16,38 16,49 2,23 -9,40 -19,47 -1,1 -2,3 -4,4l0 39 6 -2c0,-2 1,-4 1,-6 1,-12 11,-31 33,-44 10,-6 32,-15 52,-15 19,0 24,-6 27,-5 0,0 1,2 1,2 0,3 -8,5 -16,22 -8,18 -25,35 -35,42 -20,15 -42,16 -53,12 -1,0 -3,-1 -4,-1l-12 4 0 61 12 -1c1,-2 2,-5 3,-7 5,-14 22,-32 51,-39 13,-3 41,-6 64,0 21,6 28,1 31,3 1,0 2,2 1,3 -1,3 -11,3 -25,19 -15,18 -40,31 -53,36 -28,11 -52,5 -64,-4 -1,-1 -3,-2 -5,-3l-15 1 0 56 10 -1c1,-1 2,-3 3,-4 8,-11 26,-22 51,-20 12,0 35,5 52,17 15,10 22,8 24,10 1,1 1,3 0,3 -2,2 -9,0 -24,10 -17,12 -40,17 -52,18 -25,1 -43,-10 -51,-21 -1,-1 -2,-3 -3,-5l-10 1 0 81c0,3 -2,4 -4,4 -2,0 -4,-1 -4,-4l0 -81 -9 0c-1,1 -2,3 -3,4 -8,11 -26,22 -51,21 -11,-1 -35,-6 -51,-18 -16,-10 -23,-8 -25,-10 0,0 0,-2 0,-3 2,-2 9,0 25,-10 16,-12 40,-17 51,-17 25,-2 43,9 51,20 1,1 2,3 3,4l9 1 0 -56 -16 -1c-2,1 -4,2 -6,3 -11,9 -36,15 -63,4 -14,-5 -39,-18 -54,-36 -14,-16 -23,-16 -24,-19 -1,-1 0,-3 1,-3 2,-2 10,3 31,-3 22,-6 50,-3 64,0 29,7 46,25 51,39 1,2 2,5 3,7l13 1 0 -61 -11 -4c-2,0 -3,1 -4,1 -12,4 -33,3 -54,-12 -9,-7 -27,-24 -35,-42 -7,-17 -15,-19 -15,-22 -1,0 0,-2 1,-2 3,-1 8,5 26,5 20,0 43,9 53,15 22,13 32,32 33,44 0,2 0,4 0,6l6 2 0 -40c-2,-1 -3,-2 -4,-3 -10,-7 -21,-24 -19,-47z"/>
      </g>
    </g>
  </svg>
  <svg id="MVL-22" width="21.1667mm" height="21.1667mm"
       style="shape-rendering:geometricPrecision; text-rendering:geometricPrecision; image-rendering:optimizeQuality; fill-rule:evenodd; clip-rule:evenodd"
       viewBox="0 0 250 250">
    <defs>
      <style type="text/css">
        <![CDATA[
      .fil0 {fill:none}
      .fil1 {fill:#2980B9}
     ]]>
      </style>
    </defs>
    <g id="Layer_x0020_1">
      <metadata id="CorelCorpID_0Corel-Layer"/>
      <g id="_801961232">
        <polygon class="fil0" points="0,250 250,250 250,0 0,0 "/>
        <path class="fil1"
              d="M112 232c0,1 -1,1 -1,1l-1 0c-1,1 -2,0 -3,-1 -2,-6 -4,-11 -5,-16 0,0 0,-1 0,-1 -8,-23 -16,-33 -23,-41 -2,-2 -5,-5 -8,-7 0,0 -1,0 -1,0 -5,1 -9,-1 -10,-5 -1,-3 1,-5 3,-7 -5,-1 -8,-2 -11,-3 -1,0 0,1 -2,0 -4,-1 -7,-5 -5,-9 0,-1 0,-2 0,-2 -5,-3 -8,-6 -11,-8 0,0 -1,-1 -2,-2 -3,-2 -4,-5 -3,-8 -2,-1 -3,-2 -5,-3 -4,-3 -8,-6 -12,-10 -3,-3 -3,-7 0,-10 3,-3 8,-4 11,-1 1,1 2,3 4,4 -1,-2 -2,-4 -4,-6 -2,-4 -1,-8 3,-11 3,-2 8,-1 10,3 3,4 5,9 7,13 2,4 3,8 3,12 1,1 1,1 1,2 4,-1 8,0 9,4 2,3 1,2 1,2 2,3 3,6 5,10 1,-1 3,-2 4,-2 4,-1 8,1 9,5 1,2 0,1 1,3 1,5 3,11 4,21 0,2 1,6 0,8 2,2 1,1 3,4 5,6 11,12 16,24 0,-5 0,-11 0,-15 1,-11 1,-12 -7,-22 -6,-7 -9,-12 -12,-17 -1,-2 -1,-2 -1,-2 -2,-3 -2,-6 0,-9l0 0c-8,-6 -13,-12 -17,-18 -4,-5 -7,-10 -9,-15 -2,-3 -1,-8 3,-10 4,-2 8,0 10,4 2,4 4,8 8,12 1,2 3,4 5,7l0 -1c0,-1 -1,-2 0,-3 0,-4 -3,-8 -6,-11 -3,-3 -6,-6 -7,-11 -2,-4 1,-8 5,-9 2,-1 5,0 7,1 0,-2 2,-4 5,-4 4,-1 8,2 9,6 2,9 2,18 2,26 0,4 0,9 -1,12 1,1 1,2 2,3 0,1 0,2 0,3l0 0c2,5 3,11 4,21 2,2 3,4 5,6 1,2 0,27 0,31 0,12 0,27 5,44 -2,-20 -1,-34 1,-46 0,-5 0,-11 0,-16 -2,-7 -4,-13 -6,-19 0,0 0,-1 0,-1 -4,-9 -5,-15 -6,-21l0 -2c-1,-4 2,-8 5,-9 0,-4 -1,-7 -2,-10l0 -3c-1,-4 2,-8 6,-8 0,0 0,0 0,0 0,-3 0,-5 -1,-7 -1,-3 -2,-7 -3,-10 -6,-15 -7,-25 -8,-33 0,-1 0,-1 0,-3 0,-4 3,-7 7,-8 4,0 8,3 8,7l0 3c1,7 1,14 6,25l0 -1c0,-1 0,-2 0,-3 -3,-16 -1,-26 1,-35l0 -2c1,-4 5,-7 9,-6 4,1 7,5 6,9 0,1 0,2 0,2 -1,4 -2,9 -2,14 2,-5 4,-9 5,-14l0 0 0 0c1,-1 0,-1 1,-2 1,-4 5,-6 9,-5 4,2 6,6 5,10 -1,2 -1,2 -1,2l0 0c-3,9 -6,20 -18,34 0,1 -1,1 -1,1 0,2 -1,5 -1,7 3,2 4,7 3,10 -1,2 -1,1 -1,3 0,0 -1,0 -1,0l0 1c0,0 0,0 0,0 4,2 5,6 3,10 -1,3 -1,2 -1,2 -1,2 -2,4 -4,7 2,2 2,5 1,8 -2,2 -1,2 -2,2 -1,3 -3,6 -6,10 3,0 6,1 8,2 0,-5 1,-9 1,-12 0,-2 0,-3 0,-3 1,-4 4,-7 9,-7 0,0 1,1 1,1 1,-4 1,-7 1,-11 1,0 0,2 1,-2 0,-4 4,-7 8,-7l0 0c1,0 1,-1 1,-2 0,-1 0,-2 0,-3 -3,-18 0,-29 2,-38 0,-2 0,-2 0,-3 1,-4 5,-6 9,-5 3,0 6,3 6,7 2,-4 6,-5 9,-4 4,1 6,6 4,10 0,2 -1,4 -2,7 -2,8 -4,17 -12,28 0,0 0,1 0,2l-1 2c8,-6 12,-11 16,-16 0,-1 0,-1 1,-2 3,-4 7,-4 11,-2 3,3 4,8 1,11l-1 2c-6,7 -12,15 -25,23 0,2 -1,4 -2,5 -1,1 -1,1 -2,2 -2,2 -3,4 -5,5 1,3 0,6 -2,8 -1,1 -1,1 -2,2 -3,3 -6,7 -12,11 0,4 -3,7 -7,7l0 0 0 0c0,4 -3,7 -8,8 0,0 -1,0 -1,0 -3,2 -5,4 -6,6 -4,6 -6,13 -8,21 0,1 0,2 0,3 0,1 0,1 0,1 -1,10 -1,22 0,38 3,-5 6,-11 10,-17 1,-3 3,-6 5,-9 3,-9 5,-16 6,-21 1,-4 2,-9 3,-12 1,-6 5,-10 9,-9 2,0 3,1 5,2 0,-3 2,-5 4,-6 3,-7 5,-11 7,-15 1,-2 1,-1 2,-2 1,-3 4,-4 6,-4 2,-3 3,-5 4,-7 1,-2 0,-1 1,-2 2,-4 6,-5 9,-4 4,-5 7,-9 10,-12 0,-1 1,-1 1,-2 2,-2 5,-3 8,-3 2,-2 3,-4 5,-5 0,-1 0,-1 1,-2 3,-4 8,-4 11,-1 3,2 3,7 1,10l0 0 3 -1c4,-1 8,2 9,6 1,4 -2,8 -6,9 -1,0 -1,0 -2,1 -4,0 -7,1 -11,2 1,0 1,1 1,1 1,5 -2,9 -6,9l-2 1c-2,0 -4,1 -6,1 1,3 0,7 -4,9 -3,1 -2,1 -2,1 -3,1 -6,3 -10,4 1,1 1,1 1,2 2,3 0,8 -3,10 -2,0 -2,0 -3,1 -3,1 -6,2 -10,4l0 0c0,1 1,1 2,2 0,-1 1,-1 2,-1 8,-1 14,-2 19,-3 0,0 -1,0 2,-1 4,-1 8,1 9,5 0,0 1,0 2,0 3,-3 7,-4 11,-5 5,-2 10,-3 15,-3 4,-1 8,2 8,6 1,4 -2,8 -6,8 -3,1 -5,1 -7,2 2,0 3,0 5,0 4,1 7,5 7,9 -1,4 -5,7 -9,6 -5,0 -10,-1 -14,-3 -2,0 -4,-1 -6,-2 -2,3 -5,4 -8,4 -1,-1 -1,-1 -3,-1 -4,-1 -8,-2 -13,-4 -1,1 -1,1 -1,2 -3,3 -7,4 -11,2 0,-1 0,-1 -1,-2 -2,-1 -5,-3 -8,-5 -1,2 -4,2 -7,2 -13,2 -15,3 -19,9 0,0 -1,0 -1,1 -4,6 -8,13 -11,19 -6,10 -10,19 -16,24l0 0zm46 -67l0 0 0 0 0 0 0 0z"/>
      </g>
    </g>
  </svg>
  <svg id="MVL-1" width="21.1667mm" height="21.1667mm"
       style="shape-rendering:geometricPrecision; text-rendering:geometricPrecision; image-rendering:optimizeQuality; fill-rule:evenodd; clip-rule:evenodd"
       viewBox="0 0 358 358">
    <defs>
      <style type="text/css">
        <![CDATA[
      .fil0 {fill:none}
      .fil1 {fill:#2980B9}
     ]]>
      </style>
    </defs>
    <g id="Layer_x0020_1">
      <metadata id="CorelCorpID_0Corel-Layer"/>
      <g id="_801977264">
        <polygon class="fil0" points="0,358 358,358 358,0 0,0 "/>
        <path class="fil1"
              d="M193 312c0,0 1,0 1,0l0 1 0 4c0,4 1,8 3,12 2,6 21,4 29,5 5,1 14,6 10,8 0,0 -43,0 -47,0 -4,0 -14,3 -14,-3 1,-9 10,6 12,-17l-4 -54c-2,-2 -4,-5 -4,-7 0,-3 1,-6 3,-7l0 -5 -34 -2c-3,2 -9,2 -11,-2 -2,-5 2,-9 6,-12l15 -26c-9,0 -19,-1 -31,-1 -1,0 -1,-1 -1,-1 -4,5 -7,10 -9,14 -17,12 -11,23 -18,23 -3,0 -4,-13 -5,-15 -2,0 -5,6 -6,8 -2,4 0,12 -5,12 -9,0 -13,-19 -13,-25 0,-34 -5,-48 23,-68 4,-2 9,-7 16,-7 6,0 11,1 17,2 3,-1 5,-3 9,-5 4,-2 7,-5 12,-7 26,-14 47,-10 66,-4 9,-2 20,-10 20,-22 -1,-30 -11,-43 -9,-60 0,-9 5,-20 12,-28 4,-4 15,-7 21,-7 11,0 13,10 17,11 3,1 25,7 31,9 10,2 10,6 -2,5 -12,0 -34,1 -45,4 -3,0 -11,3 -12,5 -13,18 20,71 11,96 -4,10 -4,19 -12,26 -4,3 -8,6 -13,10 -5,4 -15,14 -21,17 -5,2 -10,4 -14,5 -1,11 -4,20 -6,25l-1 13 29 2c0,0 0,0 0,0 9,-1 19,10 18,16 -1,5 -7,12 -12,14 -6,3 -14,0 -10,-5 1,-2 6,-1 8,-2 2,-2 6,-6 6,-9 -2,-3 -8,-7 -11,-5 -4,3 2,5 0,8 -5,6 -9,-4 -7,-10l-22 -1 0 4c2,2 3,4 3,6 0,2 -1,4 -2,6l3 46zm-44 -75c0,1 0,2 0,2 0,0 1,1 1,1l33 2 1 -12c-3,-4 -4,-13 -4,-23 -1,0 -2,0 -3,0 -1,14 -4,23 -8,24 -3,0 -6,-7 -7,-16l-13 22zm84 -192c6,-3 6,-7 15,-11 7,-3 7,-2 4,-8 0,-2 -1,-3 -3,-2 -10,2 -16,12 -16,21z"/>
      </g>
    </g>
  </svg>
  <svg id="MVL-41" width="21.1667mm" height="21.1668mm"
       style="shape-rendering:geometricPrecision; text-rendering:geometricPrecision; image-rendering:optimizeQuality; fill-rule:evenodd; clip-rule:evenodd"
       viewBox="0 0 355 355">
    <defs>
      <style type="text/css">
        <![CDATA[
      .fil0 {fill:none}
      .fil1 {fill:#2980B9}
     ]]>
      </style>
    </defs>
    <g id="Layer_x0020_1">
      <metadata id="CorelCorpID_0Corel-Layer"/>
      <g id="_1027156096">
        <polygon class="fil0" points="0,355 355,355 355,0 0,0 "/>
        <path class="fil1"
              d="M162 271c-1,-1 -3,-2 -4,-4 0,1 0,1 -1,2 2,0 3,1 5,2l0 0zm25 4c51,1 76,10 76,26 0,2 0,4 -1,5 15,3 27,12 27,17 0,18 -49,18 -107,18 -59,0 -105,0 -105,-18 0,-5 2,-9 7,-13 -1,-2 -2,-5 -2,-7 0,-9 11,-16 30,-21 -2,0 -3,-1 -4,-1 -1,0 -3,0 -3,0 -12,-2 -23,-5 -32,-9 -20,-10 -33,-26 -32,-55 0,-32 23,-49 45,-66 2,-2 4,-3 6,-4 0,-15 3,-31 10,-50 0,-2 2,-3 4,-2 2,0 3,2 2,4 -6,16 -8,29 -9,42 8,-7 15,-13 19,-21 0,-4 -1,-9 -3,-13 0,-2 1,-4 3,-5 2,0 4,1 4,3 1,1 1,3 1,5 3,-7 3,-15 2,-23 0,-2 1,-4 3,-4 2,0 4,1 4,3 2,14 0,26 -6,36 1,6 1,11 1,16 13,-9 20,-20 21,-31 1,-7 0,-13 -3,-19 -3,-7 -8,-12 -15,-16 -11,-7 -26,-11 -42,-7 -2,0 -4,-1 -4,-3 -1,-2 1,-4 3,-4 18,-4 35,0 47,8 7,5 13,11 17,18 4,8 5,16 4,24 -2,13 -9,25 -24,37 -2,1 -3,2 -4,3 -3,16 -10,27 -19,37 1,2 3,4 4,6 6,-7 14,-14 22,-21 9,-8 19,-16 29,-24 5,-24 5,-49 -13,-77 -1,-1 -1,-4 1,-5 1,-1 4,0 5,1 8,12 12,23 15,34 0,0 0,1 0,1 4,15 5,27 3,37l6 -4c28,-21 55,-42 70,-62 -1,-10 -3,-21 -7,-33 -1,-1 0,-3 2,-4 2,-1 4,0 5,2 2,9 5,18 6,26 8,-14 9,-28 -1,-41 -1,-1 -1,-4 1,-5 1,-1 4,-1 5,1 14,19 10,37 -4,56 1,9 1,17 0,24 12,-20 21,-41 21,-63 0,-2 2,-4 4,-4 2,0 3,2 3,4 0,30 -14,56 -32,82 -7,25 -24,44 -44,63 -4,6 -7,13 -10,19 25,-3 51,-5 70,-14 7,-17 9,-42 8,-79 -1,-1 1,-3 3,-3 2,0 4,1 4,3 1,33 -1,56 -6,73 13,-9 21,-22 21,-43 0,-2 1,-3 3,-3 2,0 4,1 4,3 0,28 -13,45 -31,54 -1,2 -2,3 -2,5 -10,18 -25,28 -44,36 -6,2 -12,4 -18,6 -9,3 -18,7 -26,11 -1,9 0,18 2,28l0 0zm-33 0l1 0c0,0 -1,0 -1,0l0 0zm-1 -13c-5,-7 -8,-14 -10,-22l0 0c-3,2 -5,5 -7,7 3,7 8,13 15,18 1,-1 2,-2 2,-3l0 0zm-7 14c1,-2 1,-4 2,-5 -8,-5 -13,-11 -17,-18 -3,2 -5,5 -7,8 7,5 14,10 22,15l0 0zm17 -24c5,-4 10,-7 15,-10 1,-13 4,-25 9,-36 -3,0 -6,0 -9,1 -9,8 -19,17 -28,26 0,2 0,3 0,5 5,4 9,9 13,14l0 0zm23 -14c7,-3 15,-6 23,-8 6,-2 11,-5 17,-7 17,-7 30,-15 39,-29 -20,7 -45,9 -70,11l0 0c-4,11 -8,22 -9,33l0 0zm-8 12c-4,2 -7,5 -10,7 4,5 8,10 11,15 -1,-8 -1,-15 -1,-22l0 0zm-81 8c0,-6 0,-11 1,-16 -1,-2 -2,-4 -4,-6 -1,8 0,15 3,22l0 0zm4 -25c4,-8 10,-14 18,-19 -3,-4 -5,-7 -8,-11 -6,8 -11,15 -14,23 1,3 2,5 4,7l0 0zm25 -22l0 0c0,-1 0,-1 0,-2 1,-4 3,-8 4,-12 4,-9 10,-15 17,-22 4,-5 8,-10 12,-15 0,-1 1,-2 1,-2 -8,6 -15,12 -22,18 -8,7 -16,14 -22,21 3,5 6,9 10,14l0 0zm8 -4c3,0 5,-1 7,-2 2,0 3,0 4,0 2,-9 5,-18 8,-27l-1 2c-6,6 -12,12 -15,20 -1,2 -2,5 -3,7l0 0zm19 -4c7,-1 15,-2 22,-3l4 -3c9,-8 17,-15 24,-22 8,-13 18,-26 27,-39 6,-7 11,-15 16,-22 3,-10 5,-21 5,-33 -17,19 -42,38 -67,58 -4,3 -8,6 -12,9 -1,6 -4,10 -6,15 -2,6 -4,11 -6,17 -3,8 -5,16 -7,23l0 0zm34 -4l3 -1c1,-1 2,-2 2,-3 -1,1 -3,2 -5,4l0 0zm-21 9c-5,1 -10,2 -15,3 -1,4 -2,8 -2,13 6,-6 12,-11 17,-16l0 0zm-23 4c-4,1 -7,2 -11,4 0,0 0,1 0,2 3,3 6,7 10,11 0,-6 0,-11 1,-17l0 0zm-19 8c-9,5 -15,11 -18,21 0,1 1,1 1,2 3,4 7,9 12,13 3,-3 5,-7 8,-10 -3,-8 -4,-17 -3,-26l0 0zm-20 31c0,6 0,13 2,21 3,-4 6,-7 8,-11 -3,-3 -7,-7 -10,-10l0 0zm-23 17c-8,-8 -13,-18 -13,-34 1,-16 9,-27 19,-37 1,-7 3,-14 7,-22 0,-1 1,-2 1,-3 -1,-5 -2,-11 -3,-17l-2 1c-20,16 -42,33 -42,61 -1,25 10,40 28,48 2,1 4,2 5,3l0 0zm15 -81c1,-1 3,-2 4,-3 -1,-1 -1,-2 -1,-3 -1,2 -2,4 -3,6l0 0zm9 -10c5,-6 9,-12 12,-21 -6,6 -10,11 -14,17 1,1 2,3 2,4l0 0zm15 -32c0,-5 0,-9 0,-15 -6,7 -13,14 -21,20 0,5 1,9 2,14 5,-7 11,-13 19,-19l0 0zm-17 45c-2,2 -3,4 -5,6 -2,1 -3,3 -5,4 0,4 0,8 1,12 0,1 0,2 0,3 3,-6 8,-12 13,-18 -1,-2 -3,-4 -4,-7l0 0zm-17 18c-6,8 -10,16 -11,26 0,17 7,27 18,33 -8,-14 -8,-28 -3,-41 -2,-5 -3,-9 -3,-13 -1,-2 -1,-3 -1,-5l0 0zm28 66c6,1 12,2 19,2 -5,-3 -9,-6 -13,-10 -2,3 -4,5 -6,8l0 0zm24 -39c-2,-3 -5,-5 -7,-8 0,5 1,9 2,13 1,-2 3,-3 5,-5z"/>
      </g>
    </g>
  </svg>
  <svg id="MVL-40" width="21.1667mm" height="21.1666mm"
       style="shape-rendering:geometricPrecision; text-rendering:geometricPrecision; image-rendering:optimizeQuality; fill-rule:evenodd; clip-rule:evenodd"
       viewBox="0 0 307 307">
    <defs>
      <style type="text/css">
        <![CDATA[
      .fil0 {fill:none}
      .fil1 {fill:#2980B9}
     ]]>
      </style>
    </defs>
    <g id="Layer_x0020_1">
      <metadata id="CorelCorpID_0Corel-Layer"/>
      <g id="_801976592">
        <polygon class="fil0" points="0,307 307,307 307,0 0,0 "/>
        <path class="fil1"
              d="M29 107c12,-52 58,-86 111,-78 50,8 80,50 60,104 -13,37 -46,41 -68,39 -7,-1 -13,-3 -18,-5 -6,-3 -11,-6 -14,-9 -6,-7 -10,-15 -13,-24 -2,-9 -2,-19 0,-27 1,-1 1,-2 1,-2 3,-11 11,-20 21,-25 10,-6 22,-8 34,-5 0,0 1,0 1,0 11,3 18,9 22,16 4,8 4,18 2,28l0 0 0 0 0 0c-2,9 -8,15 -14,19 -7,4 -15,5 -22,3l0 0 -1 0 0 0c-7,-1 -12,-5 -15,-10 -2,-5 -3,-11 -2,-19 1,-1 1,-2 1,-3 2,-5 5,-8 9,-10 4,-1 9,-2 12,-1 1,0 1,0 2,0 3,2 6,4 8,6 1,3 2,6 1,9 0,0 0,0 0,1 -1,3 -3,6 -6,8 -2,1 -5,2 -7,1l0 0 0 0c0,0 0,0 -1,0 -2,0 -3,-1 -4,-2 -1,-2 -1,-4 -1,-6 0,0 1,-2 2,-2 1,-1 2,-1 3,-1 0,0 0,0 1,0l0 0c0,0 0,0 0,1 0,0 0,0 0,0l0 0 0 0c0,0 -1,1 -2,1 -1,1 -2,3 -1,4 1,2 3,2 4,1 3,-1 4,-3 4,-4l0 0c1,-2 1,-3 1,-4 -1,-1 -1,-2 -2,-3 0,0 -1,0 -1,0 -1,-1 -2,-2 -4,-2 -3,0 -5,1 -7,2 -2,2 -3,4 -4,6 0,4 0,7 2,10 2,2 4,4 8,5 0,0 0,0 0,0l0 0 0 0c5,1 9,0 13,-3 3,-2 6,-6 8,-11l0 -1c1,-5 0,-9 -2,-13 -3,-4 -6,-6 -11,-8 -1,0 -2,-1 -3,-1 -4,-1 -10,0 -15,2 -5,2 -10,6 -12,14 -1,1 -1,2 -1,3 -2,9 -1,17 2,23 4,6 10,11 19,13l0 0 0 0 0 0 0 0c9,2 19,1 27,-4 8,-5 14,-12 17,-22l0 0 0 -1 0 0 0 0c2,-11 2,-22 -3,-32 -5,-8 -12,-15 -25,-18 -1,-1 -2,-1 -2,-1 -13,-3 -27,-1 -38,5 -11,7 -20,17 -24,29 0,1 0,2 0,2 -3,10 -3,20 0,31 2,9 7,18 14,26 2,2 4,3 6,5 -15,8 -36,42 -46,32 -24,-23 -35,-57 -27,-92l0 0zm179 83c8,-1 17,-2 27,-1 1,-2 2,-4 3,-5 -1,-3 -2,-5 -4,-6 -2,-3 -5,-4 -7,-5 -3,0 -6,0 -9,1 0,0 -1,0 -2,0 -3,6 -6,11 -8,16l0 0zm12 -23c2,-3 3,-5 5,-8 2,-2 3,-5 5,-7 1,-1 3,-1 4,-1 3,0 5,1 8,2 2,2 4,4 5,7 1,2 2,3 2,5 -1,2 -2,4 -4,7 -1,2 -2,4 -4,6 0,-2 -2,-3 -3,-4 -3,-4 -6,-6 -10,-7 -3,0 -5,0 -8,0l0 0zm14 -22l0 0c4,0 8,1 11,3 3,2 6,6 8,10 0,0 0,0 0,1 3,-5 5,-9 8,-13 0,-2 -1,-3 -1,-5 -1,-3 -3,-5 -6,-7 -2,-2 -5,-2 -7,-3 -2,0 -3,0 -4,0 -3,5 -6,9 -9,14l0 0zm12 -20c3,-5 5,-9 7,-14 1,0 3,0 4,-1 3,0 6,0 8,1 3,1 5,3 7,6 1,1 2,3 2,4 -2,6 -5,12 -9,18 -1,-4 -4,-8 -7,-10 -3,-2 -7,-3 -11,-4 0,0 0,0 -1,0l0 0zm9 -20c1,0 1,0 1,-1 4,0 8,0 12,2 3,1 6,4 9,8 0,0 0,0 0,0 2,-5 4,-10 5,-15 -1,0 -1,-1 -2,-2 -3,-2 -7,-4 -10,-5 -4,0 -8,1 -11,2 -1,1 -2,1 -3,2 0,3 0,6 -1,9l0 0zm0 -15c0,-2 -1,-4 -2,-5 5,-4 10,-7 16,-7 4,-1 9,0 13,2 1,4 1,8 1,12 -4,-3 -8,-5 -13,-5 -5,-1 -9,0 -14,2 0,0 0,0 -1,1l0 0zm-4 -11c5,-4 11,-6 17,-7 4,-1 8,0 12,1 -1,-3 -2,-6 -4,-9 -5,-1 -9,-1 -13,0 -5,2 -10,4 -13,8 0,2 0,5 1,7l0 0zm-2 -15c1,-5 2,-9 4,-10 3,-2 12,0 17,4 -3,0 -6,0 -9,1 -4,1 -8,3 -12,5l0 0zm-4 132l1 0c5,1 9,2 14,3 1,2 1,3 2,5 1,3 1,5 0,8 0,3 -2,5 -4,8 -1,1 -2,2 -4,3 -4,-2 -8,-3 -12,-4l-1 0c1,-1 2,-2 2,-3 2,-3 3,-7 3,-11 0,-4 -1,-7 -2,-10 0,1 1,1 1,1l0 0zm23 7c1,4 1,7 0,10 -1,4 -3,8 -6,11 -1,1 -2,1 -3,2 2,2 4,4 5,7 2,0 3,0 5,0 3,0 6,0 8,-2 2,-1 4,-4 5,-6 1,-2 2,-3 2,-5 -3,-7 -9,-13 -16,-17l0 0zm19 25c2,6 2,13 1,21 0,0 -1,1 -1,1 -2,2 -4,4 -6,5 -3,1 -6,1 -9,1 -2,-1 -5,-2 -7,-4 -1,-1 -2,-1 -2,-2 1,-3 2,-7 2,-11 1,0 2,0 4,0 4,0 8,-1 11,-3 3,-2 6,-5 7,-8l0 0zm-3 32c0,0 -1,0 -1,0 -4,2 -8,2 -11,2 -4,-1 -8,-3 -11,-6 -1,0 -1,-1 -2,-1 -1,1 -2,2 -4,3 0,2 0,4 0,5 0,3 1,6 3,8 2,2 4,4 7,5 1,0 3,1 4,1 6,-5 12,-10 15,-17l0 0zm-22 21c-3,1 -7,3 -10,4 -4,0 -7,1 -11,1 -1,-1 -3,-3 -4,-5 -1,-3 -2,-5 -2,-8 0,-3 1,-6 3,-8 1,-1 1,-2 2,-2 2,-1 4,-1 6,-1 1,-1 2,-1 3,-1 0,1 0,2 0,3 0,4 2,8 5,11 2,3 5,5 8,6l0 0zm-29 5c-8,-2 -17,-5 -23,-11 0,-2 0,-3 1,-4 0,-3 2,-6 3,-8 2,-2 5,-3 8,-4 2,0 3,-1 5,0 2,1 4,2 6,3 -2,3 -4,7 -4,11 0,4 1,7 3,11 0,0 1,1 1,2l0 0zm-28 -17c1,-4 3,-7 5,-10 3,-3 6,-5 11,-6 1,0 1,0 2,0 -1,-2 -2,-4 -2,-6 -2,-2 -3,-3 -5,-4 -3,-1 -6,-2 -8,-2 -3,1 -6,2 -8,3 -1,1 -2,2 -3,3 1,9 4,16 8,22l0 0zm-8 -30c-1,-4 0,-8 0,-12l2 -1c7,-1 14,-2 23,-2 -2,6 -2,10 -2,15 0,0 -1,-1 -1,-1 -4,-2 -8,-3 -12,-3 -4,1 -7,2 -10,4l0 0zm37 -21c2,-1 3,-3 4,-5 2,-2 2,-5 2,-8 0,-3 -1,-5 -2,-8 -1,-1 -2,-2 -2,-2 -7,-1 -14,-1 -19,0 2,2 4,5 5,8 1,3 1,8 0,12 0,1 -1,2 -1,3 1,0 2,0 3,0 4,0 7,0 10,0l0 0zm-20 0c1,-1 2,-3 2,-5 1,-3 1,-6 0,-8 -1,-3 -2,-5 -5,-7 -1,-1 -2,-2 -3,-3 -1,1 -3,1 -5,1 -1,0 -2,0 -4,1 -2,0 -5,0 -8,1 2,2 4,4 5,6 2,4 3,8 2,12 0,1 0,3 -1,5l1 -1c5,0 10,-1 16,-2l0 0zm-23 4c1,-2 1,-5 1,-7 1,-3 0,-6 -1,-8 -1,-3 -3,-5 -6,-6 -1,-1 -2,-1 -3,-2 -5,1 -10,3 -16,5 3,1 6,3 8,6 2,3 3,7 3,12 0,1 0,2 0,3 5,-1 9,-2 14,-3l0 0zm-20 5c0,-2 0,-4 0,-5 0,-3 -1,-6 -2,-8 -2,-3 -4,-4 -7,-6 -1,0 -3,-1 -5,-1 -2,0 -3,1 -5,2 -3,1 -6,2 -8,3 3,2 6,4 8,7 3,4 4,8 4,12 0,1 0,1 0,2 2,-1 3,-2 5,-2 4,-2 7,-3 10,-4l0 0zm-22 9c-4,3 -8,6 -12,9 0,-1 0,-2 -1,-3 0,-5 -2,-9 -4,-12 -3,-3 -6,-5 -10,-6 0,0 0,0 -1,0 5,-3 10,-6 15,-8 2,0 3,1 5,1 3,2 5,3 6,6 2,2 3,5 3,8 0,2 0,4 -1,5l0 0zm-19 13c1,-2 1,-5 1,-7 -1,-3 -2,-6 -4,-8 -2,-2 -4,-4 -7,-5 -2,0 -4,-1 -6,-1 -4,3 -8,6 -12,10 3,0 7,2 9,5 3,3 5,6 6,10 0,2 1,3 1,5 4,-3 8,-6 12,-9l0 0zm-18 13c-3,1 -6,3 -9,5 0,-1 0,-2 0,-3 -1,-4 -3,-7 -6,-10 -2,-2 -5,-4 -9,-5l0 0c3,-2 5,-4 7,-6 2,0 3,0 5,0 3,1 5,2 7,4 2,2 4,5 4,8 1,2 1,4 1,7l0 0zm-15 9c0,-2 0,-4 0,-6 -1,-3 -2,-5 -4,-7 -1,-1 -4,-2 -6,-3 -1,0 -3,0 -5,0 -1,1 -3,4 -5,6 2,1 5,2 6,4 2,2 4,4 5,8 0,0 0,1 0,2 3,-1 6,-3 8,-4l1 0zm-15 6c-6,2 -12,2 -13,1 -1,-2 1,-7 4,-11 1,0 1,0 2,0 2,0 3,1 4,2 1,1 2,3 3,5 0,1 0,2 0,3z"/>
      </g>
    </g>
  </svg>
  <svg id="MVL-2" width="21.1667mm" height="21.1667mm"
       style="shape-rendering:geometricPrecision; text-rendering:geometricPrecision; image-rendering:optimizeQuality; fill-rule:evenodd; clip-rule:evenodd"
       viewBox="0 0 6492 6492">
    <defs>
      <style type="text/css">
        <![CDATA[
      .fil0 {fill:none}
      .fil1 {fill:#2980B9}
     ]]>
      </style>
    </defs>
    <g id="Layer_x0020_1">
      <metadata id="CorelCorpID_0Corel-Layer"/>
      <g id="_801970256">
        <polygon class="fil0" points="0,6492 6492,6492 6492,0 0,0 "/>
        <path class="fil1"
              d="M4044 6151c-29,61 -41,72 -140,-34 -32,-34 -43,-66 -59,-107 -68,-173 -36,-256 -59,-446 -21,-182 22,-477 -14,-669 -45,-236 -4,-524 -141,-731 -57,-87 -72,-112 -197,-129 -95,-14 -173,-8 -278,-14 -253,-15 -553,-33 -642,109 -46,73 -177,366 -199,436 -63,196 58,679 106,910 34,164 154,513 248,665 49,79 -94,70 -146,35 -231,-153 -131,-97 -202,-267l1 0c-40,-97 -36,-198 -88,-322 -52,-122 -91,-469 -151,-589 -59,-117 -90,-216 -144,-336 -96,62 -160,187 -160,299 0,284 99,696 228,945 25,48 50,96 71,145 50,115 93,211 -107,166 -105,-25 -201,-215 -263,-289 -61,-74 -91,-418 -127,-536 -49,-159 -146,-543 -143,-673 4,-131 217,-469 217,-583 0,-126 -173,-375 -237,-524 -77,-180 -140,-267 -327,-153 -36,23 -42,40 -51,32 -21,-19 -3,-138 24,-205 63,-153 69,-421 123,-483 82,-95 220,-118 320,-203 78,-67 362,-208 466,-224 279,-43 407,81 619,81 84,0 784,-4 932,-67 167,-71 110,4 416,-178 96,-57 189,-119 218,-151 119,-127 92,-499 92,-712 0,-53 -90,-333 -112,-369 -91,-147 -305,-33 -454,-300 -57,-102 -151,-248 -151,-356 0,-38 122,-66 255,-15 100,40 246,118 315,203 270,334 274,9 643,131 238,80 373,-224 654,-334 133,-51 259,-22 255,15 -30,251 -247,549 -432,560 -128,8 -157,54 -209,175 -37,87 -66,158 -91,256 -48,192 -9,764 -9,1059 0,92 20,161 6,251 -19,118 3,260 -27,373 -35,127 -113,396 -187,513 -142,224 -206,447 -219,707l-19 155c-39,153 23,427 7,606 -25,274 11,621 8,899 -1,84 17,267 -12,274 -55,13 -134,-44 -164,-74 -118,-119 -39,-436 -64,-616 -20,-140 -9,-680 -55,-812l-107 -309c-67,275 -47,686 -42,996 4,192 -8,231 8,442 11,155 40,281 -3,372z"/>
      </g>
    </g>
  </svg>
  <svg id="MVL-26" width="21.1667mm" height="21.1667mm"
       style="shape-rendering:geometricPrecision; text-rendering:geometricPrecision; image-rendering:optimizeQuality; fill-rule:evenodd; clip-rule:evenodd"
       viewBox="0 0 573 573">
    <defs>
      <style type="text/css">
        <![CDATA[
      .fil0 {fill:none}
      .fil1 {fill:#2980B9}
     ]]>
      </style>
    </defs>
    <g id="Layer_x0020_1">
      <metadata id="CorelCorpID_0Corel-Layer"/>
      <g id="_801971184">
        <polygon class="fil0" points="0,573 573,573 573,0 0,0 "/>
        <path class="fil1"
              d="M205 271c-4,-1 -7,-3 -9,-4l0 0c-4,-2 -12,-9 -17,-15 -4,-5 -6,-11 0,-15l2 -1 2 1c7,7 15,12 22,17 7,6 15,10 24,13 8,3 19,8 30,7 8,0 15,-2 19,-6 7,-7 10,-17 10,-28 0,-11 -2,-23 -4,-33 -1,-5 -6,-16 -10,-24 -3,-8 -6,-14 -5,-16l1 -2 1 0c9,-1 17,16 21,24l0 0 1 1c1,2 1,5 2,8 1,5 3,11 5,14 1,2 2,3 4,2 1,-1 1,-3 1,-5 0,-3 0,-7 3,-10l1 -1 1 0c7,-1 9,3 12,8 3,4 6,9 13,9 1,0 1,-1 1,-3 -2,-3 -5,-8 -9,-13 -5,-6 -9,-11 -7,-14l1 -2 1 0c3,0 6,0 9,1 5,0 10,1 14,-3 -1,-3 -7,-5 -12,-7 -5,-3 -10,-4 -10,-9l0 0 0 0c1,-7 4,-7 8,-8 2,0 4,-1 6,-2 -3,-6 -9,-5 -14,-3 -6,3 -13,5 -19,0 -6,-4 -9,-9 -13,-13 -4,-6 -8,-11 -19,-12 -5,0 -11,5 -16,9 -2,1 -4,3 -6,4l-2 1 -1 -2c-2,-1 -4,-3 -6,-6 -8,-7 -18,-17 -19,-22l0 -2 2 -1c3,-2 18,-4 26,-5 2,0 3,0 4,0 7,-1 12,-3 17,-4 3,-2 7,-3 12,-4l1 0 1 0c4,3 11,7 20,11 6,3 14,6 20,7 5,1 9,1 10,0 0,0 0,0 0,0 2,-5 -5,-8 -9,-10 -2,-1 -3,-2 -4,-2 -2,-1 -9,-6 -14,-9 -4,-3 -7,-6 -7,-8l1 -2 2 0c2,0 8,-1 13,-1 3,-1 7,-1 8,-1l0 0 13 -1 0 0c3,0 6,1 10,1 5,1 10,1 11,-3l0 0c0,-2 -3,-4 -8,-4 -4,-1 -9,-1 -15,-1 -11,0 -24,-1 -33,-5 -8,-3 -9,-6 -8,-9 2,-4 8,-7 14,-10 4,-1 7,-3 9,-4 1,-1 1,-2 1,-2l0 0c1,-1 1,-1 0,-1l0 0c0,0 0,-1 -1,-1 -2,-1 -4,-2 -7,-2 -1,1 -3,2 -6,3 -7,3 -16,8 -29,8 -7,0 -15,-3 -23,-5 -6,-2 -12,-4 -19,-4 -14,-2 -27,-3 -41,-2 -13,1 -26,4 -39,11 -3,2 -3,5 -2,7 0,1 0,2 0,3 -1,3 -2,5 -6,5 -11,-1 -18,0 -22,3 -4,3 -7,8 -9,16 -1,3 -1,5 -1,6 -1,2 -1,3 -2,4l0 0c-2,2 -3,2 -6,0l0 0c0,0 -1,0 -2,0l0 0 0 -1c-7,-2 -15,4 -22,13 -7,10 -13,22 -16,29l0 0 0 1 0 0c-4,10 -9,18 -12,25 -10,21 -16,32 -8,71 1,4 0,11 -3,17 -2,9 -6,18 -9,23 -1,1 -2,3 -2,4 0,2 0,3 1,4 0,2 1,2 2,3 0,0 1,0 1,1 4,0 8,-9 12,-17 2,-5 4,-10 6,-12l1 -1 1 0c8,0 10,5 14,14l0 0c1,2 2,5 3,7 2,4 3,7 4,9 2,4 3,7 4,9 1,0 1,1 2,1 0,0 0,0 0,0 0,0 1,0 1,-1l0 0c1,0 2,-2 2,-3 0,-2 0,-4 0,-7 0,-3 -1,-6 -2,-9 0,-2 0,-4 -1,-7 -1,-1 -1,-3 -2,-4l0 0c-1,-2 -2,-3 -2,-4l0 0c-1,-1 -1,-1 -2,-2 -1,-2 -2,-4 -2,-5 0,-2 1,-3 2,-4 0,-1 2,-2 3,-2 2,0 4,0 6,1 8,2 15,8 22,13 7,6 13,11 17,9l0 0c0,-1 0,-1 0,-3 -1,-1 -2,-3 -4,-5 -2,-2 -3,-3 -5,-4l0 0 0 -1c-2,-2 -6,-7 -10,-11 -3,-3 -7,-7 -10,-10l-1 -1 1 -2c0,-1 2,-5 5,-11 5,-12 14,-30 15,-35 1,-3 1,-5 2,-6 0,-3 1,-6 2,-9l1 -2 2 0c4,1 8,5 11,9 6,6 11,14 13,17 2,3 4,6 5,8l0 0c2,3 4,5 6,7l1 3 -2 1c-2,2 -7,7 -11,12 -3,4 -6,8 -6,9 -1,11 2,14 7,19 3,3 7,7 10,14 4,7 1,13 -2,19 -2,6 -5,12 1,17 2,-2 3,-4 4,-6 2,-4 3,-7 10,-7l3 0 -1 3c0,5 1,12 3,16 1,3 3,5 6,6 4,-3 4,-8 4,-12 -1,-4 -1,-7 0,-9l1 -2 1 0c4,-1 8,3 13,8 3,4 7,8 10,10 2,1 3,1 4,0 1,-7 -4,-10 -8,-13 -4,-4 -9,-7 -6,-14l0 0 1 -1c3,-3 8,-2 12,-2 3,0 6,0 7,-1 1,0 1,-1 0,-2 -3,-2 -9,-4 -15,-6l0 0zm172 90c12,12 -31,39 -40,42 -64,22 -79,14 -139,-4 -20,-6 -37,-1 -48,20 -12,23 6,53 19,62 29,21 75,-2 100,-17 34,-20 37,-32 80,-47 41,-14 72,-4 100,-26 27,-22 44,-54 39,-88 -7,-49 -40,-66 -84,-61 -3,0 -34,23 -49,12 -8,-5 1,-26 5,-31 5,-7 13,-14 20,-18 55,-29 116,-6 144,43 24,41 27,94 3,136 -23,42 -42,60 -88,75 -22,7 -52,7 -76,15 -36,13 -62,46 -110,61 -66,20 -149,-13 -154,-85 -3,-40 22,-95 69,-100 47,-5 100,28 139,23 11,-1 26,-4 37,-7 11,-3 25,-14 33,-5l0 0zm7 -135c-4,2 -6,6 -4,9 1,3 6,4 10,2 4,-3 6,-7 4,-10 -1,-3 -6,-3 -10,-1l0 0zm-154 18c15,15 -3,21 -12,9 -12,-14 0,-21 12,-9l0 0zm33 -32c-7,-20 11,-17 14,-3 5,18 -9,20 -14,3z"/>
      </g>
    </g>
  </svg>
  <svg id="MVL-233" width="21.1667mm" height="21.1667mm"
       style="shape-rendering:geometricPrecision; text-rendering:geometricPrecision; image-rendering:optimizeQuality; fill-rule:evenodd; clip-rule:evenodd"
       viewBox="0 0 245 245">
    <defs>
      <style type="text/css">
        <![CDATA[
      .fil0 {fill:none}
      .fil1 {fill:#2980B9}
     ]]>
      </style>
    </defs>
    <g id="Layer_x0020_1">
      <metadata id="CorelCorpID_0Corel-Layer"/>
      <g id="_801967280">
        <polygon class="fil0" points="0,245 245,245 245,0 0,0 "/>
        <path class="fil1"
              d="M122 33c21,0 40,4 57,12 17,8 31,19 41,33l1 0c4,7 10,15 10,21 -1,4 -4,7 -12,7l0 0 -74 0c0,3 0,6 0,10 5,2 9,4 13,7 4,3 8,6 10,10l1 1c2,3 5,7 5,10 -1,3 -2,5 -7,5l0 0 -22 0 0 1c1,6 2,11 4,17 1,5 3,10 3,14 0,12 -3,21 -8,27 -5,6 -12,9 -21,9 -6,0 -12,-1 -17,-2 -6,-2 -11,-5 -14,-9 -4,-4 -6,-9 -6,-16 0,-4 1,-8 2,-13 1,-4 3,-7 5,-11 2,-4 5,-9 6,-17l-22 0c-6,0 -8,-3 -7,-7 1,-2 3,-5 5,-9 4,-4 8,-8 13,-11 4,-2 9,-5 14,-7 0,-3 0,-6 0,-9l-76 0c-11,0 -14,-4 -13,-10 1,-5 6,-12 11,-18 10,-14 25,-25 42,-33 17,-8 36,-12 56,-12l0 0zm19 73l-34 0c0,3 0,5 0,8 2,0 5,0 7,1 3,0 5,0 8,0 2,0 3,0 4,0 5,0 11,0 14,0 0,-3 1,-6 1,-9l0 0zm0 43l-37 0c-1,9 -4,14 -7,20 -2,3 -3,6 -4,10 -2,4 -2,8 -2,11 0,5 1,10 4,13 3,3 8,6 12,7 5,2 11,2 16,2 8,0 14,-2 18,-7 4,-5 6,-13 6,-24 0,-4 -1,-8 -3,-13 -1,-6 -3,-11 -3,-18l0 -1zm-14 -30c-3,0 -5,0 -5,0 -3,0 -5,0 -8,0 -4,0 -8,0 -9,0 -5,2 -10,4 -15,7 -4,3 -8,6 -11,10 -2,3 -4,6 -4,7 -1,1 0,1 2,1l90 0 0 0c1,0 2,0 2,0 0,-2 -2,-5 -4,-8l0 0c-3,-3 -6,-7 -10,-10 -4,-2 -8,-4 -13,-6 -2,-1 -9,-1 -15,-1z"/>
      </g>
    </g>
  </svg>
  <svg id="MVL-37" width="21.1667mm" height="21.1667mm"
       style="shape-rendering:geometricPrecision; text-rendering:geometricPrecision; image-rendering:optimizeQuality; fill-rule:evenodd; clip-rule:evenodd"
       viewBox="0 0 775 775">
    <defs>
      <style type="text/css">
        <![CDATA[
      .fil0 {fill:none}
      .fil1 {fill:#2980B9}
     ]]>
      </style>
    </defs>
    <g id="Layer_x0020_1">
      <metadata id="CorelCorpID_0Corel-Layer"/>
      <g id="_801970320">
        <polygon class="fil0" points="0,775 775,775 775,0 0,0 "/>
        <path class="fil1"
              d="M179 490c-4,5 -10,8 -17,8 -8,0 -15,-4 -19,-12 1,21 4,48 7,76 6,58 5,121 -1,154 -1,5 -5,7 -9,7 -5,-1 -7,-5 -7,-9 6,-32 8,-93 2,-151 -7,-67 -14,-129 5,-134 8,-2 22,-1 32,-2 16,0 22,16 23,42 1,28 -5,70 -10,112 -7,52 -6,106 -1,133 1,5 -2,9 -6,9 -4,1 -8,-2 -9,-6 -6,-29 -6,-84 1,-138 4,-32 8,-64 9,-89l0 0zm87 3c-3,-8 -5,-15 -8,-22 -32,-95 -66,-71 -136,-97 -2,3 -3,5 -5,7 -49,5 -56,40 -64,78 -1,6 -2,13 -4,20 -1,4 1,8 5,9 5,1 9,-1 10,-5 2,-7 3,-14 4,-21 7,-31 12,-59 46,-65 0,2 0,3 0,5 0,3 0,5 1,8 -16,24 -17,59 -19,99 -2,28 -3,59 -10,88 -1,4 2,9 6,10 4,1 8,-2 9,-6 7,-31 9,-62 10,-92 2,-38 4,-73 18,-93 9,-3 19,-4 31,-4 11,0 20,1 28,3 13,11 16,41 19,79 3,33 7,71 18,109 1,4 5,6 9,5 4,-1 7,-5 6,-9 -11,-37 -14,-74 -17,-106 -3,-33 -6,-61 -16,-79 20,11 27,33 37,62 2,7 5,15 8,23 1,4 6,6 10,4 4,-1 6,-6 4,-10l0 0zm19 -77l-2 -7c-15,-44 -19,-57 -57,-68 1,-3 1,-5 2,-8 -27,-14 -54,-32 -76,-52 -13,1 -20,9 -25,19 -3,-2 -6,-4 -9,-5 -10,-5 -21,-5 -31,-2 -9,2 -17,8 -25,15 -13,12 -24,29 -29,40 -2,4 0,9 4,11 4,1 8,0 10,-4 5,-10 14,-25 26,-36 6,-5 12,-10 19,-12 6,-1 13,-1 20,2 3,1 5,3 8,5 -5,18 -3,35 15,49 20,6 41,12 62,15 11,-4 18,-12 23,-22 32,8 36,19 48,58l2 7c2,4 6,6 10,5 4,-1 6,-6 5,-10l0 0zm38 -53c1,4 -1,8 -5,9 -5,1 -9,-2 -10,-6 -5,-24 -10,-37 -19,-45 -8,-8 -19,-12 -37,-19 -6,7 -14,13 -22,15 -24,-13 -49,-31 -70,-50 -3,-13 1,-25 10,-35 -2,-8 -5,-15 -8,-21 -5,-9 -12,-15 -20,-19 -7,-3 -15,-4 -23,-3 -5,1 -10,3 -15,5 -3,2 -8,1 -10,-3 -2,-3 -1,-8 3,-10 6,-4 13,-6 20,-7 10,-1 21,0 32,4 10,5 19,13 27,25 2,5 5,10 7,16 7,-6 15,-10 25,-8 14,28 33,56 55,78l-1 1c17,6 29,11 38,20 11,10 17,25 23,53l0 0zm28 -17c-1,5 -4,8 -9,8 -4,-1 -7,-4 -7,-9 2,-24 1,-38 -5,-49 -5,-9 -16,-17 -31,-28l-1 0c-10,5 -20,7 -29,5 -18,-19 -33,-42 -45,-66 0,-18 11,-29 26,-36 2,-1 3,-2 4,-2 1,-8 1,-15 1,-22 -2,-11 -6,-19 -11,-25 -6,-6 -13,-10 -20,-12 -6,-1 -11,-2 -16,-1 -4,0 -8,-3 -8,-7 -1,-4 2,-8 6,-9 7,0 15,0 22,2 10,3 19,8 27,17 8,8 13,19 15,33 1,6 1,12 0,19 6,-1 12,-1 18,2 4,31 13,64 26,92 0,0 -1,1 -1,1 14,11 24,19 31,30 7,13 9,30 7,57l0 0zm37 -6c7,-27 8,-44 3,-58 -4,-12 -12,-21 -24,-33 1,-30 8,-62 17,-90 -6,-9 -14,-13 -24,-14 3,-6 5,-11 6,-17 3,-14 2,-26 -2,-36 -5,-11 -12,-19 -20,-25 -6,-5 -13,-8 -20,-9 -4,-1 -8,1 -9,5 -1,5 2,9 6,10 4,1 9,3 14,6 6,5 11,11 14,18 4,8 5,17 2,28 -2,6 -4,13 -9,20 -17,2 -31,9 -37,27 4,26 12,53 22,77 7,3 15,4 23,4 14,14 23,24 26,34 4,11 3,25 -3,49 -1,4 2,9 6,10 4,1 8,-2 9,-6l0 0zm23 14c-2,3 -7,4 -11,1 -3,-2 -4,-7 -1,-10 15,-20 21,-33 22,-44 0,-12 -4,-24 -12,-42l0 0c-11,-4 -20,-9 -26,-17l0 0c1,-21 6,-47 15,-75l0 0 0 0 0 0 0 0c0,-2 1,-5 2,-7 10,-8 23,-9 35,-6 7,-6 12,-11 15,-16 6,-9 9,-18 8,-26 0,-9 -3,-16 -7,-22 -3,-5 -7,-9 -11,-12 -3,-2 -4,-7 -2,-10 3,-4 7,-5 11,-2 6,3 11,9 15,15 6,8 10,19 10,30 0,11 -3,23 -11,35 -3,5 -6,9 -11,13 8,4 15,9 19,18 -18,24 -35,52 -46,80 7,18 12,31 11,44 -1,16 -8,30 -25,53l0 0zm14 17c23,-15 35,-27 41,-41 4,-11 5,-22 4,-38 1,1 2,2 4,2 19,-24 46,-45 72,-62 1,-8 -3,-15 -8,-21 6,-2 11,-5 16,-8 12,-8 19,-18 23,-29 4,-10 5,-21 3,-31 -2,-8 -5,-15 -9,-20 -2,-4 -7,-5 -10,-2 -4,2 -5,7 -2,10 2,4 4,9 5,15 2,7 2,15 -1,23 -3,8 -9,15 -18,21 -5,4 -12,7 -20,9 -14,-11 -30,-16 -48,-5 -14,21 -27,44 -36,66l0 0c2,8 7,15 13,21 1,19 2,33 -3,43 -4,11 -14,21 -34,35 -4,2 -5,7 -2,10 2,4 7,5 10,2l0 0zm9 27c27,-5 42,-11 53,-21 9,-9 14,-20 21,-36 27,-15 59,-26 90,-33 3,-9 1,-18 -4,-27 6,-1 12,-1 17,-3 14,-3 24,-10 32,-19 7,-8 11,-19 12,-29 1,-7 1,-15 -1,-21 -1,-4 -5,-7 -9,-6 -4,1 -7,5 -6,9 2,5 2,11 1,16 -1,7 -4,15 -9,21 -6,7 -13,12 -24,14 -6,2 -14,3 -22,2 -9,-11 -20,-18 -37,-16 -21,14 -43,32 -59,51 -1,9 2,18 7,27l0 0c-7,19 -11,31 -19,39 -9,8 -22,13 -46,17 -4,1 -7,5 -6,9 1,5 5,7 9,6l0 0zm-2 24c28,4 44,4 58,-3 13,-5 22,-16 36,-32 32,-1 66,1 97,9 3,-6 4,-13 4,-20 5,1 9,3 13,3 15,2 27,0 37,-6 10,-5 17,-13 23,-22 3,-6 6,-14 7,-20 0,-5 -3,-8 -7,-9 -4,-1 -8,2 -9,7 0,4 -2,10 -5,14 -4,7 -9,13 -16,17 -8,3 -17,5 -27,4 -6,-1 -12,-3 -18,-5 -3,-17 -13,-30 -36,-33 -26,7 -49,16 -67,25 -3,7 -4,14 -4,22 0,0 -1,0 -1,1 -14,16 -23,26 -34,31 -10,5 -24,5 -49,2 -4,-1 -8,2 -8,6 -1,4 2,8 6,9l0 0zm112 82c-26,18 -51,22 -75,26 -40,7 -79,13 -125,100 -2,3 -7,5 -11,3 -3,-2 -5,-7 -3,-11 50,-93 92,-100 137,-107 20,-3 41,-7 64,-20 -17,-15 -30,-38 -28,-56 3,-15 9,-28 23,-36l0 0c29,-2 61,0 90,7 17,11 21,28 19,46 -3,20 -23,40 -46,49 17,22 35,33 54,43 39,23 76,45 89,150 1,4 -3,8 -7,8 -4,1 -8,-2 -8,-7 -12,-97 -46,-117 -82,-137 -21,-13 -43,-25 -61,-52 -5,1 -9,1 -14,0 -5,-1 -10,-3 -16,-6z"/>
      </g>
    </g>
  </svg>
  <svg id="MVL-39" width="21.1667mm" height="21.1666mm"
       style="shape-rendering:geometricPrecision; text-rendering:geometricPrecision; image-rendering:optimizeQuality; fill-rule:evenodd; clip-rule:evenodd"
       viewBox="0 0 709 709">
    <defs>
      <style type="text/css">
        <![CDATA[
      .fil0 {fill:none}
      .fil1 {fill:#2980B9}
     ]]>
      </style>
    </defs>
    <g id="Layer_x0020_1">
      <metadata id="CorelCorpID_0Corel-Layer"/>
      <g id="_801981840">
        <polygon class="fil0" points="0,709 709,709 709,0 0,0 "/>
        <path class="fil1"
              d="M445 268c-1,-1 -3,-2 -5,-2 31,-31 58,-62 83,-96 29,-38 56,-81 85,-131 1,-4 0,-8 -3,-10 -3,-2 -8,0 -9,3 -29,50 -56,92 -84,129 -28,38 -57,71 -92,105 -1,0 -1,1 -2,2 -27,5 -69,23 -106,47 -4,-11 -11,-24 -21,-30 -6,-3 -8,-2 -17,2 -21,8 -14,16 2,29 6,4 12,8 18,11 -8,7 -15,13 -22,20 -38,37 -59,56 -52,80 7,10 17,22 28,33l0 0 0 0c14,14 28,25 42,34 22,4 41,-17 76,-52 7,-7 13,-15 20,-23 3,6 7,12 11,18 13,16 21,23 29,2 4,-10 5,-11 2,-17 -6,-10 -19,-17 -30,-21 25,-37 42,-80 48,-107 0,-1 1,-1 1,-1 33,-35 67,-65 104,-93 38,-28 80,-54 130,-83 3,-2 4,-6 2,-9 -1,-4 -6,-5 -9,-3 -51,29 -93,56 -131,84 -34,26 -65,53 -96,84 0,-2 -1,-4 -2,-5l0 0zm-69 182c8,5 14,9 20,12 19,12 28,17 40,19 12,2 27,0 56,-4 13,-1 27,-3 44,-5 4,0 7,3 7,6 1,4 -2,8 -6,8 -18,2 -31,4 -43,5 -31,4 -47,6 -60,4 -15,-2 -25,-8 -45,-21 -6,-4 -13,-8 -20,-12 -3,-2 -4,-6 -3,-9 2,-4 7,-5 10,-3l0 0zm-125 -106c-5,-7 -9,-14 -12,-20 -13,-21 -19,-31 -21,-45 -2,-14 0,-29 4,-60 1,-12 3,-26 5,-44 0,-3 4,-6 7,-6 4,1 7,4 6,8 -1,16 -3,31 -5,43 -3,30 -5,45 -3,57 1,12 7,21 19,40 3,5 7,12 11,20 2,3 1,7 -2,9 -3,2 -7,1 -9,-2l0 0zm-31 33c-5,-6 -10,-12 -15,-17 -15,-19 -23,-28 -28,-42 -4,-13 -4,-29 -6,-60 0,-12 -1,-26 -2,-43 0,-4 3,-7 7,-7 4,-1 7,2 7,6 1,17 2,32 2,44 1,30 2,45 6,56 3,11 10,20 25,37 4,4 8,10 15,17 2,3 2,8 -1,10 -3,3 -7,2 -10,-1l0 0zm-18 31c-49,-33 -53,-40 -79,-85 -5,-9 -11,-18 -18,-30 -1,-3 0,-7 3,-9 3,-2 7,-1 9,2 7,11 13,21 17,30 25,43 29,49 75,81 3,2 4,6 2,9 -2,3 -6,4 -9,2l0 0zm-19 35c4,1 7,-1 8,-5 1,-4 -1,-7 -5,-8 -3,-1 -7,-2 -12,-3 -29,-6 -42,-9 -53,-1 -9,7 -14,19 -23,43 -4,10 -8,21 -13,34 -2,3 0,7 4,9 3,1 7,0 9,-4 5,-14 9,-25 13,-34 8,-21 12,-33 18,-37 6,-5 17,-2 42,4 3,0 6,1 12,2l0 0zm100 84c-1,-4 -5,-6 -8,-6 -4,1 -6,5 -6,9 2,6 2,9 3,12 6,24 8,36 4,42 -5,5 -16,10 -37,18 -10,3 -20,8 -34,13 -4,2 -6,6 -4,9 1,4 5,5 9,4 12,-5 24,-10 33,-13 24,-9 37,-14 44,-23 8,-11 5,-25 -2,-53 -1,-5 -2,-10 -2,-12l0 0zm33 -24c-2,-3 -6,-4 -10,-1 -3,2 -3,6 -1,9 33,49 40,53 85,79 8,5 18,10 29,17 4,2 8,1 10,-2 2,-3 1,-8 -2,-10 -12,-6 -21,-12 -30,-17 -43,-24 -49,-28 -81,-75l0 0zm28 -21c8,7 13,11 18,15 17,15 25,22 37,25 11,4 26,4 56,5 12,1 27,2 44,2 3,1 6,4 6,8 0,4 -3,6 -7,6 -18,-1 -32,-1 -44,-2 -31,-1 -47,-2 -60,-6 -14,-4 -23,-12 -41,-28 -6,-4 -12,-10 -18,-15 -2,-2 -3,-6 0,-9 2,-3 6,-3 9,-1l0 0zm141 -375c1,1 2,3 2,4 -6,-2 -15,2 -32,8 -27,9 -60,31 -59,35 2,3 40,0 68,-9 17,-6 27,-9 31,-15 3,30 -39,39 -79,58 -30,14 -43,30 -66,32 -23,3 -38,-2 -68,-34 -21,-21 10,-45 62,-65 52,-19 128,-35 141,-14l0 0zm120 121c21,13 6,89 -14,141 -19,52 -43,82 -64,62 -33,-31 -37,-45 -35,-69 3,-23 19,-36 33,-65 19,-40 27,-82 57,-79 -5,4 -8,13 -14,31 -9,27 -12,66 -9,67 4,1 25,-31 35,-58 6,-17 9,-27 8,-33 1,1 2,2 3,3l0 0zm-346 52c-5,-1 -14,-31 -9,-55 4,-25 8,-45 32,-21 24,24 20,16 15,40 -4,24 -32,37 -38,36l0 0zm174 173c-1,-6 11,-33 36,-38 24,-4 16,-9 39,15 24,24 4,29 -20,33 -24,4 -54,-4 -55,-10l0 0zm-224 -18c8,11 18,23 29,34l0 0 0 0c13,13 25,24 38,32 -2,6 -6,12 -12,18 -13,-9 -27,-21 -41,-34 -13,-13 -23,-26 -32,-38 6,-5 12,-9 18,-12l0 0zm-28 22c9,12 20,25 32,37 14,14 28,26 42,35 -5,5 -10,10 -15,15 -13,-9 -26,-20 -39,-33l0 0c-14,-13 -25,-27 -34,-40 5,-6 10,-10 14,-14l0 0zm-24 24c9,13 20,27 34,40l0 0c13,13 26,24 39,33 -6,5 -11,10 -18,14 -11,-8 -22,-18 -34,-29l0 0 0 0 0 0c-14,-14 -26,-29 -35,-42 5,-6 9,-11 14,-16l0 0zm-22 28c9,13 20,26 33,40l0 0 0 0 0 0c11,10 22,20 33,28 -7,4 -13,8 -20,12 -8,-7 -17,-15 -26,-24l0 0c-13,-13 -23,-25 -32,-37 4,-7 8,-13 12,-19l0 0zm-21 30c-27,-13 -51,-20 -65,-9 -16,12 8,43 22,58 4,5 11,7 18,6 -3,8 -2,15 5,22 7,6 14,7 22,5 -1,7 1,14 5,18 16,13 47,37 59,22 10,-14 5,-36 -7,-62 -10,-7 -19,-15 -28,-24l0 0c-12,-12 -22,-24 -31,-36z"/>
      </g>
    </g>
  </svg>
</svg>
